<svg width="85" height="81" viewBox="0 0 85 81" fill="none" xmlns="http://www.w3.org/2000/svg">
<path d="M62.5879 0.65625C50.2297 0.65625 40.1758 10.7102 40.1758 23.0684C40.1758 35.4266 50.2297 45.4805 62.5879 45.4805C74.9461 45.4805 85 35.4266 85 23.0684C85 10.7102 74.9461 0.65625 62.5879 0.65625ZM62.5879 35.5195C59.5797 35.5195 56.877 33.7282 55.7049 30.9574L60.2919 29.0167C60.6837 29.9414 61.5852 30.5391 62.5879 30.5391C63.9608 30.5391 65.0781 29.4218 65.0781 28.0488C65.0781 26.6759 63.9608 25.5586 62.5879 25.5586C58.469 25.5586 55.1172 22.2067 55.1172 18.0879C55.1172 13.969 58.469 10.6172 62.5879 10.6172C65.5961 10.6172 68.2988 12.4085 69.4709 15.1793L64.8839 17.12C64.4921 16.1953 63.5923 15.5977 62.5879 15.5977C61.2149 15.5977 60.0977 16.7149 60.0977 18.0879C60.0977 19.4608 61.2149 20.5781 62.5879 20.5781C66.7067 20.5781 70.0586 23.93 70.0586 28.0488C70.0586 32.1677 66.7067 35.5195 62.5879 35.5195Z" fill="#FFDA45"/>
<path d="M74.7137 47.6287C71.0564 49.4416 66.9392 50.4609 62.5879 50.4609C48.3238 50.4609 36.5699 39.5006 35.3065 25.5586H30.0488C26.5509 25.5586 23.194 26.2675 20.0464 27.6687C17.4914 26.2841 14.6708 25.5586 11.8087 25.5586H4.18193L8.44521 38.3501C8.02022 39.0922 7.65166 39.8011 7.33457 40.5H0V60.4219H7.31963C9.26533 64.8462 12.4993 68.6629 16.5617 71.2926C18.7697 72.722 20.0879 75.1425 20.0879 77.7672V80.3438H35.0293V75.3633H49.9707V80.3438H64.9121V77.8535C64.9121 73.6865 66.3863 69.6324 69.0642 66.4383C73.6246 60.9996 75.469 54.1282 74.7137 47.6287ZM25.0684 45.4805H20.0879V40.5H25.0684V45.4805Z" fill="#FFDA45"/>
</svg>
